<svg xmlns="http://www.w3.org/2000/svg" xmlns:xlink="http://www.w3.org/1999/xlink" width="700" zoomAndPan="magnify" viewBox="0 0 525 299.999988" height="400" preserveAspectRatio="xMidYMid meet" version="1.0"><defs><g/></defs><g fill="#f89300" fill-opacity="1"><g transform="translate(200.185579, 125.267109)"><g><path d="M 14.625 -44.90625 C 14.625 -41.832031 15.695312 -39.316406 17.84375 -37.359375 C 19.988281 -35.398438 23.210938 -33.191406 27.515625 -30.734375 C 30.660156 -28.972656 33.15625 -27.4375 35 -26.125 C 36.84375 -24.820312 38.414062 -23.171875 39.71875 -21.171875 C 41.019531 -19.179688 41.671875 -16.882812 41.671875 -14.28125 C 41.671875 -9.519531 39.769531 -5.773438 35.96875 -3.046875 C 32.175781 -0.328125 27.09375 1.03125 20.71875 1.03125 C 15.269531 1.03125 10.875 -0.00390625 7.53125 -2.078125 C 4.195312 -4.148438 2.53125 -6.945312 2.53125 -10.46875 C 2.53125 -12.78125 3.316406 -14.601562 4.890625 -15.9375 C 6.460938 -17.28125 8.441406 -17.953125 10.828125 -17.953125 C 12.660156 -17.953125 14.425781 -17.492188 16.125 -16.578125 C 13.738281 -15.347656 12.546875 -12.929688 12.546875 -9.328125 C 12.546875 -7.179688 13.332031 -5.359375 14.90625 -3.859375 C 16.476562 -2.359375 18.609375 -1.609375 21.296875 -1.609375 C 24.054688 -1.609375 26.222656 -2.375 27.796875 -3.90625 C 29.367188 -5.445312 30.15625 -7.367188 30.15625 -9.671875 C 30.15625 -12.359375 29.175781 -14.5625 27.21875 -16.28125 C 25.269531 -18.007812 22.300781 -20.023438 18.3125 -22.328125 C 15.15625 -24.015625 12.5625 -25.585938 10.53125 -27.046875 C 8.5 -28.503906 6.789062 -30.304688 5.40625 -32.453125 C 4.03125 -34.609375 3.34375 -37.144531 3.34375 -40.0625 C 3.34375 -44.4375 5.203125 -47.984375 8.921875 -50.703125 C 12.640625 -53.429688 17.492188 -54.796875 23.484375 -54.796875 C 28.628906 -54.796875 32.8125 -53.816406 36.03125 -51.859375 C 39.257812 -49.898438 40.875 -47.3125 40.875 -44.09375 C 40.875 -42.019531 40.179688 -40.390625 38.796875 -39.203125 C 37.410156 -38.015625 35.53125 -37.421875 33.15625 -37.421875 C 31.46875 -37.421875 29.703125 -37.84375 27.859375 -38.6875 C 28.859375 -39.445312 29.625 -40.398438 30.15625 -41.546875 C 30.695312 -42.703125 30.96875 -43.894531 30.96875 -45.125 C 30.96875 -47.039062 30.273438 -48.671875 28.890625 -50.015625 C 27.515625 -51.359375 25.484375 -52.03125 22.796875 -52.03125 C 20.179688 -52.03125 18.164062 -51.335938 16.75 -49.953125 C 15.332031 -48.578125 14.625 -46.894531 14.625 -44.90625 Z M 14.625 -44.90625 "/></g></g></g><g fill="#f89300" fill-opacity="1"><g transform="translate(244.855677, 125.267109)"><g><path d="M 28.4375 1.03125 C 20.457031 1.03125 14.125 -1.460938 9.4375 -6.453125 C 4.757812 -11.441406 2.421875 -18.234375 2.421875 -26.828125 C 2.421875 -35.421875 4.757812 -42.226562 9.4375 -47.25 C 14.125 -52.28125 20.457031 -54.796875 28.4375 -54.796875 C 36.414062 -54.796875 42.765625 -52.28125 47.484375 -47.25 C 52.203125 -42.226562 54.5625 -35.421875 54.5625 -26.828125 C 54.5625 -18.304688 52.203125 -11.53125 47.484375 -6.5 C 42.765625 -1.476562 36.414062 1.03125 28.4375 1.03125 Z M 28.09375 -1.609375 C 30.925781 -1.609375 33.4375 -2.660156 35.625 -4.765625 C 37.8125 -6.878906 39.519531 -9.816406 40.75 -13.578125 C 41.976562 -17.335938 42.59375 -21.675781 42.59375 -26.59375 C 42.59375 -31.507812 42 -35.921875 40.8125 -39.828125 C 39.625 -43.742188 37.972656 -46.796875 35.859375 -48.984375 C 33.753906 -51.171875 31.359375 -52.265625 28.671875 -52.265625 C 25.828125 -52.265625 23.289062 -51.171875 21.0625 -48.984375 C 18.84375 -46.796875 17.117188 -43.722656 15.890625 -39.765625 C 14.660156 -35.816406 14.046875 -31.3125 14.046875 -26.25 C 14.046875 -18.800781 15.3125 -12.832031 17.84375 -8.34375 C 20.375 -3.851562 23.789062 -1.609375 28.09375 -1.609375 Z M 28.09375 -1.609375 "/></g></g></g><g fill="#f89300" fill-opacity="1"><g transform="translate(301.729549, 125.267109)"><g><path d="M 27.75 1.03125 C 19.53125 1.03125 13.253906 -1.578125 8.921875 -6.796875 C 4.585938 -12.015625 2.421875 -18.691406 2.421875 -26.828125 C 2.421875 -34.960938 4.609375 -41.65625 8.984375 -46.90625 C 13.359375 -52.164062 19.6875 -54.796875 27.96875 -54.796875 C 33.269531 -54.796875 37.585938 -53.78125 40.921875 -51.75 C 44.265625 -49.71875 45.9375 -47.050781 45.9375 -43.75 C 45.9375 -40.519531 44.59375 -37.984375 41.90625 -36.140625 C 39.21875 -34.304688 35.84375 -33.390625 31.78125 -33.390625 C 34.082031 -35.835938 35.234375 -39.175781 35.234375 -43.40625 C 35.234375 -45.863281 34.484375 -47.914062 32.984375 -49.5625 C 31.484375 -51.207031 29.546875 -52.03125 27.171875 -52.03125 C 22.796875 -52.03125 19.585938 -49.535156 17.546875 -44.546875 C 15.515625 -39.554688 14.5 -33.648438 14.5 -26.828125 C 14.5 -22.453125 15.132812 -18.457031 16.40625 -14.84375 C 17.675781 -11.238281 19.519531 -8.378906 21.9375 -6.265625 C 24.351562 -4.160156 27.132812 -3.109375 30.28125 -3.109375 C 33.882812 -3.109375 36.894531 -3.851562 39.3125 -5.34375 C 41.726562 -6.84375 43.9375 -8.9375 45.9375 -11.625 L 47.3125 -10.59375 C 45.238281 -7.132812 42.570312 -4.332031 39.3125 -2.1875 C 36.050781 -0.0390625 32.195312 1.03125 27.75 1.03125 Z M 27.75 1.03125 "/></g></g></g><g fill="#f89300" fill-opacity="1"><g transform="translate(349.508178, 125.267109)"><g><path d="M 3.109375 -2.078125 C 4.867188 -2.535156 6.148438 -3.015625 6.953125 -3.515625 C 7.765625 -4.015625 8.304688 -4.703125 8.578125 -5.578125 C 8.847656 -6.460938 8.984375 -7.789062 8.984375 -9.5625 L 8.984375 -39.484375 C 8.984375 -43.171875 8.691406 -45.757812 8.109375 -47.25 C 7.535156 -48.75 6.140625 -50.421875 3.921875 -52.265625 L 4.953125 -53.765625 L 24.40625 -53.765625 L 25.21875 -51.921875 C 22.988281 -50.617188 21.566406 -49.410156 20.953125 -48.296875 C 20.335938 -47.179688 20.03125 -45.203125 20.03125 -42.359375 L 20.03125 -14.046875 C 20.03125 -10.441406 20.316406 -7.890625 20.890625 -6.390625 C 21.472656 -4.890625 22.835938 -3.21875 24.984375 -1.375 L 24.0625 0 L 3.921875 0 Z M 3.109375 -2.078125 "/></g></g></g><g fill="#f89300" fill-opacity="1"><g transform="translate(378.520773, 125.267109)"><g><path d="M 47.09375 -10.359375 C 47.851562 -8.210938 48.691406 -6.503906 49.609375 -5.234375 C 50.535156 -3.972656 51.957031 -2.613281 53.875 -1.15625 L 52.84375 0 L 32 0 L 31.3125 -2.078125 L 33.046875 -2.53125 C 34.191406 -2.914062 35.015625 -3.394531 35.515625 -3.96875 C 36.015625 -4.539062 36.265625 -5.328125 36.265625 -6.328125 C 36.265625 -6.941406 35.84375 -8.515625 35 -11.046875 L 32.703125 -17.84375 L 14.84375 -17.84375 L 13.9375 -14.96875 C 12.78125 -11.507812 12.203125 -8.898438 12.203125 -7.140625 C 12.203125 -5.453125 12.507812 -3.914062 13.125 -2.53125 L 13.9375 -1.15625 L 12.890625 0 L 0.234375 0 L -0.578125 -2.078125 L 1.15625 -2.53125 C 3 -3.070312 4.378906 -3.820312 5.296875 -4.78125 C 6.210938 -5.738281 7.09375 -7.445312 7.9375 -9.90625 L 19.6875 -43.75 C 20.226562 -45.664062 20.5 -47.007812 20.5 -47.78125 C 20.5 -49.46875 19.269531 -50.65625 16.8125 -51.34375 L 15.546875 -51.6875 L 16.34375 -53.765625 L 32 -53.765625 Z M 31.546875 -21.0625 L 23.71875 -44.4375 L 16 -21.0625 Z M 31.546875 -21.0625 "/></g></g></g><g fill="#f89300" fill-opacity="1"><g transform="translate(432.40129, 125.267109)"><g><path d="M 8.984375 -38.90625 C 8.984375 -41.675781 8.863281 -43.769531 8.625 -45.1875 C 8.394531 -46.601562 7.9375 -47.8125 7.25 -48.8125 C 6.5625 -49.8125 5.453125 -50.960938 3.921875 -52.265625 L 4.953125 -53.765625 L 24.984375 -53.765625 L 25.78125 -51.921875 C 24.019531 -50.921875 22.753906 -50.035156 21.984375 -49.265625 C 21.222656 -48.503906 20.707031 -47.546875 20.4375 -46.390625 C 20.164062 -45.242188 20.03125 -43.441406 20.03125 -40.984375 L 20.03125 -8.859375 C 20.03125 -6.410156 20.375 -4.800781 21.0625 -4.03125 C 21.757812 -3.257812 23.296875 -2.875 25.671875 -2.875 L 30.046875 -2.875 C 32.273438 -2.875 34.039062 -3.625 35.34375 -5.125 C 36.644531 -6.625 37.988281 -9.484375 39.375 -13.703125 L 41.671875 -12.890625 L 41.671875 0.921875 L 40.53125 1.953125 C 39.53125 1.191406 38.414062 0.675781 37.1875 0.40625 C 35.957031 0.132812 34.113281 0 31.65625 0 L 3.34375 0 L 2.640625 -2.078125 C 4.566406 -2.609375 5.953125 -3.125 6.796875 -3.625 C 7.640625 -4.125 8.210938 -4.796875 8.515625 -5.640625 C 8.828125 -6.484375 8.984375 -7.789062 8.984375 -9.5625 Z M 8.984375 -38.90625 "/></g></g></g><g fill="#f89300" fill-opacity="1"><g transform="translate(199.960717, 209.50404)"><g><path d="M 38.65625 1.4375 C 27.207031 1.4375 18.460938 -2.195312 12.421875 -9.46875 C 6.390625 -16.738281 3.375 -26.039062 3.375 -37.375 C 3.375 -48.695312 6.421875 -58.019531 12.515625 -65.34375 C 18.609375 -72.675781 27.425781 -76.34375 38.96875 -76.34375 C 46.34375 -76.34375 52.351562 -74.925781 57 -72.09375 C 61.65625 -69.257812 63.984375 -65.539062 63.984375 -60.9375 C 63.984375 -56.445312 62.113281 -52.921875 58.375 -50.359375 C 54.632812 -47.796875 49.929688 -46.515625 44.265625 -46.515625 C 47.472656 -49.929688 49.078125 -54.582031 49.078125 -60.46875 C 49.078125 -63.882812 48.03125 -66.738281 45.9375 -69.03125 C 43.851562 -71.332031 41.15625 -72.484375 37.84375 -72.484375 C 31.75 -72.484375 27.285156 -69.007812 24.453125 -62.0625 C 21.617188 -55.113281 20.203125 -46.882812 20.203125 -37.375 C 20.203125 -31.269531 21.082031 -25.707031 22.84375 -20.6875 C 24.613281 -15.664062 27.179688 -11.679688 30.546875 -8.734375 C 33.921875 -5.796875 37.796875 -4.328125 42.171875 -4.328125 C 47.203125 -4.328125 51.398438 -5.367188 54.765625 -7.453125 C 58.128906 -9.535156 61.203125 -12.453125 63.984375 -16.203125 L 65.921875 -14.75 C 63.023438 -9.9375 59.304688 -6.035156 54.765625 -3.046875 C 50.222656 -0.0546875 44.851562 1.4375 38.65625 1.4375 Z M 38.65625 1.4375 "/></g></g></g><g fill="#f89300" fill-opacity="1"><g transform="translate(266.515452, 209.50404)"><g><path d="M 12.515625 -54.203125 C 12.515625 -58.054688 12.351562 -60.972656 12.03125 -62.953125 C 11.707031 -64.929688 11.0625 -66.613281 10.09375 -68 C 9.132812 -69.382812 7.585938 -70.988281 5.453125 -72.8125 L 6.890625 -74.890625 L 34.796875 -74.890625 L 35.921875 -72.328125 C 33.460938 -70.941406 31.695312 -69.710938 30.625 -68.640625 C 29.5625 -67.566406 28.84375 -66.226562 28.46875 -64.625 C 28.09375 -63.019531 27.90625 -60.507812 27.90625 -57.09375 L 27.90625 -12.34375 C 27.90625 -8.925781 28.382812 -6.679688 29.34375 -5.609375 C 30.3125 -4.546875 32.453125 -4.015625 35.765625 -4.015625 L 41.859375 -4.015625 C 44.960938 -4.015625 47.421875 -5.054688 49.234375 -7.140625 C 51.054688 -9.222656 52.925781 -13.203125 54.84375 -19.078125 L 58.0625 -17.96875 L 58.0625 1.28125 L 56.453125 2.71875 C 55.054688 1.65625 53.503906 0.9375 51.796875 0.5625 C 50.085938 0.1875 47.523438 0 44.109375 0 L 4.65625 0 L 3.6875 -2.890625 C 6.363281 -3.640625 8.285156 -4.359375 9.453125 -5.046875 C 10.628906 -5.742188 11.429688 -6.679688 11.859375 -7.859375 C 12.296875 -9.035156 12.515625 -10.851562 12.515625 -13.3125 Z M 12.515625 -54.203125 "/></g></g></g><g fill="#f89300" fill-opacity="1"><g transform="translate(326.815579, 209.50404)"><g><path d="M 67.03125 -26.625 C 67.03125 -17.425781 64.675781 -10.445312 59.96875 -5.6875 C 55.269531 -0.9375 48.378906 1.4375 39.296875 1.4375 C 30.421875 1.4375 23.46875 -1.019531 18.4375 -5.9375 C 13.414062 -10.851562 10.90625 -17.75 10.90625 -26.625 L 10.90625 -55.328125 C 10.90625 -60.242188 10.476562 -63.769531 9.625 -65.90625 C 8.769531 -68.050781 6.898438 -70.351562 4.015625 -72.8125 L 5.125 -74.890625 L 33.203125 -74.890625 L 34.3125 -72.328125 C 31.851562 -71.046875 30.085938 -69.894531 29.015625 -68.875 C 27.953125 -67.863281 27.234375 -66.554688 26.859375 -64.953125 C 26.484375 -63.347656 26.296875 -60.941406 26.296875 -57.734375 L 26.296875 -25.171875 C 26.296875 -18.015625 27.6875 -12.59375 30.46875 -8.90625 C 33.25 -5.21875 37.3125 -3.375 42.65625 -3.375 C 48.75 -3.375 53.453125 -5.269531 56.765625 -9.0625 C 60.085938 -12.851562 61.75 -18.222656 61.75 -25.171875 L 61.75 -61.578125 C 61.75 -64.898438 61.132812 -67.175781 59.90625 -68.40625 C 58.675781 -69.632812 56.03125 -70.835938 51.96875 -72.015625 L 53.078125 -74.890625 L 71.6875 -74.890625 L 73.125 -73.125 L 71.6875 -71.359375 C 69.875 -68.898438 68.617188 -66.414062 67.921875 -63.90625 C 67.222656 -61.394531 66.925781 -58.054688 67.03125 -53.890625 Z M 67.03125 -26.625 "/></g></g></g><g fill="#f89300" fill-opacity="1"><g transform="translate(403.954897, 209.50404)"><g><path d="M 50.515625 -39.296875 C 55.753906 -38.117188 59.953125 -35.816406 63.109375 -32.390625 C 66.265625 -28.972656 67.84375 -24.96875 67.84375 -20.375 C 67.84375 -14.164062 65.222656 -9.21875 59.984375 -5.53125 C 54.742188 -1.84375 47.6875 0 38.8125 0 L 5.296875 0 L 4.171875 -2.890625 C 6.835938 -3.640625 8.757812 -4.359375 9.9375 -5.046875 C 11.113281 -5.742188 11.914062 -6.679688 12.34375 -7.859375 C 12.769531 -9.035156 12.984375 -10.851562 12.984375 -13.3125 L 12.984375 -56.765625 C 12.984375 -60.515625 12.6875 -63.242188 12.09375 -64.953125 C 11.507812 -66.660156 10.148438 -68.15625 8.015625 -69.4375 L 6.09375 -70.5625 L 6.734375 -72.65625 C 10.160156 -73.71875 14.570312 -74.597656 19.96875 -75.296875 C 25.363281 -75.992188 30.253906 -76.34375 34.640625 -76.34375 C 44.046875 -76.34375 51.394531 -74.578125 56.6875 -71.046875 C 61.976562 -67.515625 64.625 -62.597656 64.625 -56.296875 C 64.625 -52.335938 63.367188 -48.882812 60.859375 -45.9375 C 58.347656 -43 54.898438 -40.785156 50.515625 -39.296875 Z M 38.65625 -3.53125 C 42.5 -3.53125 45.675781 -5.078125 48.1875 -8.171875 C 50.707031 -11.273438 51.96875 -15.234375 51.96875 -20.046875 C 51.96875 -24.960938 50.304688 -28.96875 46.984375 -32.0625 C 43.671875 -35.164062 38.96875 -37.253906 32.875 -38.328125 L 32.875 -40.25 C 37.789062 -40.25 41.664062 -41.691406 44.5 -44.578125 C 47.332031 -47.472656 48.75 -51.378906 48.75 -56.296875 C 48.75 -61.210938 47.570312 -65.140625 45.21875 -68.078125 C 42.875 -71.015625 39.722656 -72.484375 35.765625 -72.484375 C 33.410156 -72.484375 31.59375 -71.707031 30.3125 -70.15625 C 29.03125 -68.613281 28.390625 -66.453125 28.390625 -63.671875 L 28.390625 -17.796875 C 28.390625 -13.410156 29.320312 -9.9375 31.1875 -7.375 C 33.0625 -4.8125 35.550781 -3.53125 38.65625 -3.53125 Z M 38.65625 -3.53125 "/></g></g></g><path stroke-linecap="butt" transform="matrix(0, 0.75, -0.75, 0, 113.591435, 58.857934)" fill="none" stroke-linejoin="miter" d="M 0.00192188 4.002122 L 214.736314 4.002122 " stroke="#f89300" stroke-width="8" stroke-opacity="1" stroke-miterlimit="4"/><g fill="#f89300" fill-opacity="1"><g transform="translate(56.593179, 98.866365)"><g><path d="M 7.125 -29.90625 C 7.125 -32.269531 6.941406 -34.132812 6.578125 -35.5 C 6.222656 -36.863281 5.539062 -38.226562 4.53125 -39.59375 L 3.828125 -40.578125 L 4.53125 -41.5625 L 24.203125 -41.5625 C 27.460938 -41.5625 29.65625 -41.945312 30.78125 -42.71875 L 31.859375 -43.515625 L 32.75 -42.71875 L 32.75 -31.59375 L 30.96875 -30.96875 C 29.894531 -34.164062 28.835938 -36.359375 27.796875 -37.546875 C 26.765625 -38.734375 25.300781 -39.328125 23.40625 -39.328125 L 19.40625 -39.328125 C 17.851562 -39.328125 16.835938 -39.046875 16.359375 -38.484375 C 15.890625 -37.921875 15.65625 -36.71875 15.65625 -34.875 L 15.65625 -22.25 L 22.0625 -22.25 C 23.84375 -22.25 25.160156 -22.425781 26.015625 -22.78125 C 26.878906 -23.132812 27.519531 -23.847656 27.9375 -24.921875 L 28.390625 -26.15625 L 29.546875 -25.453125 L 29.546875 -15.484375 L 27.578125 -14.765625 L 27.234375 -16.734375 C 26.992188 -17.972656 26.335938 -18.828125 25.265625 -19.296875 C 24.203125 -19.773438 22.484375 -20.015625 20.109375 -20.015625 L 15.65625 -20.015625 L 15.65625 -6.578125 C 15.65625 -4.804688 15.921875 -3.632812 16.453125 -3.0625 C 16.992188 -2.5 18.179688 -2.21875 20.015625 -2.21875 L 24.375 -2.21875 C 26.15625 -2.21875 27.566406 -2.84375 28.609375 -4.09375 C 29.648438 -5.34375 30.644531 -7.507812 31.59375 -10.59375 L 33.453125 -9.96875 L 33.453125 0.71875 L 32.484375 1.515625 C 31.648438 0.921875 30.695312 0.519531 29.625 0.3125 C 28.5625 0.101562 27.082031 0 25.1875 0 L 2.84375 0 L 2.21875 -1.609375 C 3.707031 -2.015625 4.773438 -2.410156 5.421875 -2.796875 C 6.078125 -3.179688 6.523438 -3.703125 6.765625 -4.359375 C 7.003906 -5.015625 7.125 -6.023438 7.125 -7.390625 Z M 7.125 -29.90625 "/></g></g></g><g fill="#f89300" fill-opacity="1"><g transform="translate(53.568995, 163.001859)"><g><path d="M 37.203125 -14.78125 C 37.203125 -9.675781 35.894531 -5.800781 33.28125 -3.15625 C 30.675781 -0.519531 26.851562 0.796875 21.8125 0.796875 C 16.882812 0.796875 13.023438 -0.566406 10.234375 -3.296875 C 7.441406 -6.023438 6.046875 -9.851562 6.046875 -14.78125 L 6.046875 -30.703125 C 6.046875 -33.429688 5.804688 -35.390625 5.328125 -36.578125 C 4.859375 -37.765625 3.820312 -39.039062 2.21875 -40.40625 L 2.84375 -41.5625 L 18.421875 -41.5625 L 19.046875 -40.140625 C 17.679688 -39.429688 16.703125 -38.789062 16.109375 -38.21875 C 15.515625 -37.65625 15.113281 -36.925781 14.90625 -36.03125 C 14.695312 -35.144531 14.59375 -33.816406 14.59375 -32.046875 L 14.59375 -13.96875 C 14.59375 -10 15.363281 -6.988281 16.90625 -4.9375 C 18.445312 -2.894531 20.703125 -1.875 23.671875 -1.875 C 27.054688 -1.875 29.664062 -2.925781 31.5 -5.03125 C 33.34375 -7.132812 34.265625 -10.113281 34.265625 -13.96875 L 34.265625 -34.171875 C 34.265625 -36.015625 33.921875 -37.273438 33.234375 -37.953125 C 32.554688 -38.640625 31.09375 -39.3125 28.84375 -39.96875 L 29.453125 -41.5625 L 39.78125 -41.5625 L 40.578125 -40.578125 L 39.78125 -39.609375 C 38.769531 -38.242188 38.070312 -36.863281 37.6875 -35.46875 C 37.300781 -34.070312 37.140625 -32.21875 37.203125 -29.90625 Z M 37.203125 -14.78125 "/></g></g></g><g fill="#f89300" fill-opacity="1"><g transform="translate(54.3688, 219.690464)"><g><path d="M 39.25 -17.796875 L 38.53125 -16.828125 C 37.707031 -15.753906 37.160156 -14.59375 36.890625 -13.34375 C 36.617188 -12.101562 36.484375 -10.207031 36.484375 -7.65625 L 36.484375 0 L 35.59375 0.359375 L 30.96875 -2.046875 C 28.0625 -0.148438 24.800781 0.796875 21.1875 0.796875 C 15.25 0.796875 10.546875 -1.128906 7.078125 -4.984375 C 3.609375 -8.835938 1.875 -14.03125 1.875 -20.5625 C 1.875 -27.257812 3.753906 -32.566406 7.515625 -36.484375 C 11.285156 -40.398438 16.375 -42.359375 22.78125 -42.359375 C 26.875 -42.359375 30.210938 -41.570312 32.796875 -40 C 35.378906 -38.425781 36.671875 -36.363281 36.671875 -33.8125 C 36.671875 -31.320312 35.628906 -29.363281 33.546875 -27.9375 C 31.472656 -26.519531 28.863281 -25.8125 25.71875 -25.8125 C 26.550781 -26.820312 27.203125 -27.90625 27.671875 -29.0625 C 28.148438 -30.21875 28.390625 -31.710938 28.390625 -33.546875 C 28.390625 -35.566406 27.796875 -37.1875 26.609375 -38.40625 C 25.421875 -39.625 23.9375 -40.234375 22.15625 -40.234375 C 18.832031 -40.234375 16.175781 -38.4375 14.1875 -34.84375 C 12.207031 -31.25 11.21875 -26.488281 11.21875 -20.5625 C 11.21875 -17.0625 11.734375 -13.929688 12.765625 -11.171875 C 13.804688 -8.410156 15.242188 -6.257812 17.078125 -4.71875 C 18.921875 -3.175781 21.03125 -2.40625 23.40625 -2.40625 C 25.1875 -2.40625 26.90625 -2.726562 28.5625 -3.375 L 28.5625 -11.390625 C 28.5625 -12.753906 28.441406 -13.75 28.203125 -14.375 C 27.972656 -15 27.53125 -15.503906 26.875 -15.890625 C 26.226562 -16.273438 25.160156 -16.675781 23.671875 -17.09375 L 24.203125 -18.78125 L 38.53125 -18.78125 Z M 39.25 -17.796875 "/></g></g></g><g fill="#f89300" fill-opacity="1"><g transform="translate(122.423629, 100.066508)"><g><path d="M 47.609375 -11.21875 C 47.734375 -8.84375 48.09375 -6.851562 48.6875 -5.25 C 49.28125 -3.644531 50.226562 -2.191406 51.53125 -0.890625 L 50.8125 0 L 35.328125 0 L 34.703125 -1.609375 C 36.660156 -2.140625 37.921875 -2.671875 38.484375 -3.203125 C 39.054688 -3.734375 39.34375 -4.710938 39.34375 -6.140625 C 39.34375 -6.910156 38.863281 -14.117188 37.90625 -27.765625 L 37.375 -35.515625 L 25.359375 -1.328125 L 22.875 -1.328125 L 10.953125 -35.25 L 9.703125 -14.953125 C 9.460938 -12.109375 9.34375 -10.117188 9.34375 -8.984375 C 9.34375 -7.441406 9.535156 -6.09375 9.921875 -4.9375 C 10.304688 -3.78125 11.035156 -2.429688 12.109375 -0.890625 L 11.296875 0 L 1.421875 0 L 0.890625 -1.609375 C 2.429688 -2.078125 3.539062 -2.488281 4.21875 -2.84375 C 4.90625 -3.195312 5.378906 -3.703125 5.640625 -4.359375 C 5.910156 -5.015625 6.109375 -6.023438 6.234375 -7.390625 L 7.296875 -24.46875 C 7.597656 -28.445312 7.75 -31.0625 7.75 -32.3125 C 7.75 -34.320312 7.523438 -35.800781 7.078125 -36.75 C 6.628906 -37.707031 5.632812 -38.925781 4.09375 -40.40625 L 4.71875 -41.5625 L 17.71875 -41.5625 L 26.875 -13.890625 L 36.578125 -41.5625 L 48.0625 -41.5625 L 48.953125 -40.578125 C 47.828125 -38.921875 47.070312 -37.554688 46.6875 -36.484375 C 46.300781 -35.421875 46.109375 -34.03125 46.109375 -32.3125 C 46.109375 -31.175781 46.222656 -29.425781 46.453125 -27.0625 Z M 47.609375 -11.21875 "/></g></g></g><g fill="#f89300" fill-opacity="1"><g transform="translate(130.743941, 160.140169)"><g><path d="M 7.125 -29.90625 C 7.125 -32.28125 6.941406 -34.148438 6.578125 -35.515625 C 6.222656 -36.878906 5.539062 -38.242188 4.53125 -39.609375 L 3.828125 -40.578125 L 4.53125 -41.5625 L 24.203125 -41.5625 C 27.472656 -41.5625 29.671875 -41.945312 30.796875 -42.71875 L 31.859375 -43.515625 L 32.75 -42.71875 L 32.75 -31.59375 L 30.96875 -30.96875 C 29.90625 -34.175781 28.851562 -36.375 27.8125 -37.5625 C 26.769531 -38.75 25.300781 -39.34375 23.40625 -39.34375 L 19.40625 -39.34375 C 17.863281 -39.34375 16.851562 -39.054688 16.375 -38.484375 C 15.894531 -37.921875 15.65625 -36.722656 15.65625 -34.890625 L 15.65625 -22.25 L 22.078125 -22.25 C 23.847656 -22.25 25.164062 -22.425781 26.03125 -22.78125 C 26.894531 -23.132812 27.535156 -23.847656 27.953125 -24.921875 L 28.390625 -26.171875 L 29.546875 -25.453125 L 29.546875 -15.484375 L 27.59375 -14.78125 L 27.234375 -16.734375 C 26.992188 -17.972656 26.335938 -18.832031 25.265625 -19.3125 C 24.203125 -19.789062 22.484375 -20.03125 20.109375 -20.03125 L 15.65625 -20.03125 L 15.65625 -6.59375 C 15.65625 -4.8125 15.921875 -3.632812 16.453125 -3.0625 C 16.992188 -2.5 18.1875 -2.21875 20.03125 -2.21875 L 24.390625 -2.21875 C 26.171875 -2.21875 27.578125 -2.84375 28.609375 -4.09375 C 29.648438 -5.34375 30.644531 -7.507812 31.59375 -10.59375 L 33.46875 -9.96875 L 33.46875 0.71875 L 32.484375 1.515625 C 31.648438 0.921875 30.695312 0.519531 29.625 0.3125 C 28.5625 0.101562 27.082031 0 25.1875 0 L 2.84375 0 L 2.21875 -1.609375 C 3.707031 -2.015625 4.773438 -2.410156 5.421875 -2.796875 C 6.078125 -3.179688 6.523438 -3.703125 6.765625 -4.359375 C 7.003906 -5.015625 7.125 -6.023438 7.125 -7.390625 Z M 7.125 -29.90625 "/></g></g></g><g fill="#f89300" fill-opacity="1"><g transform="translate(127.319136, 216.828791)"><g><path d="M 39.96875 -39.609375 C 39.007812 -38.242188 38.335938 -36.847656 37.953125 -35.421875 C 37.566406 -33.992188 37.375 -32.15625 37.375 -29.90625 L 37.375 -5.078125 C 37.375 -3.828125 37.644531 -2.785156 38.1875 -1.953125 L 38.984375 -0.890625 L 38.1875 0 L 28.921875 0 L 9.171875 -34.09375 L 9.171875 -11.65625 C 9.171875 -9.28125 9.363281 -7.394531 9.75 -6 C 10.132812 -4.613281 10.800781 -3.265625 11.75 -1.953125 L 12.546875 -0.890625 L 11.75 0 L 1.953125 0 L 1.328125 -1.609375 C 2.878906 -2.015625 3.960938 -2.394531 4.578125 -2.75 C 5.203125 -3.113281 5.632812 -3.617188 5.875 -4.265625 C 6.113281 -4.921875 6.234375 -5.960938 6.234375 -7.390625 L 6.234375 -30.890625 C 6.234375 -33.492188 5.992188 -35.390625 5.515625 -36.578125 C 5.046875 -37.765625 4.007812 -39.039062 2.40625 -40.40625 L 3.109375 -41.5625 L 14.6875 -41.5625 L 34.53125 -7.203125 L 34.53125 -34.171875 C 34.53125 -35.953125 34.160156 -37.195312 33.421875 -37.90625 C 32.679688 -38.625 31.15625 -39.3125 28.84375 -39.96875 L 29.375 -41.5625 L 39.96875 -41.5625 L 40.765625 -40.578125 Z M 39.96875 -39.609375 "/></g></g></g><path stroke-linecap="butt" transform="matrix(0.75, 0.000000000000000008, -0.000000000000000008, 0.75, 31.54982, 26.999998)" fill="none" stroke-linejoin="miter" d="M 0.00128177 4.000003 L 631.01175 4.000003 " stroke="#f89300" stroke-width="8" stroke-opacity="1" stroke-miterlimit="4"/><path stroke-linecap="butt" transform="matrix(0.00112066, -0.749999, 0.749999, 0.00112066, 25.782778, 269.949909)" fill="none" stroke-linejoin="miter" d="M 0.00168601 3.997965 L 323.856253 3.998433 " stroke="#f89300" stroke-width="8" stroke-opacity="1" stroke-miterlimit="4"/><path stroke-linecap="butt" transform="matrix(-0.75, 0, 0, -0.75, 499.15545, 269.88112)" fill="none" stroke-linejoin="miter" d="M -0.00106702 3.997744 L 627.165651 3.997744 " stroke="#f89300" stroke-width="8" stroke-opacity="1" stroke-miterlimit="4"/><path stroke-linecap="butt" transform="matrix(0, -0.75, 0.75, 0, 498.77529, 269.980612)" fill="none" stroke-linejoin="miter" d="M 0.000191469 3.997531 L 323.187718 3.997531 " stroke="#f89300" stroke-width="8" stroke-opacity="1" stroke-miterlimit="4"/></svg>